<?xml version="1.0" encoding="iso-8859-1"?>
<!-- Generator: Adobe Illustrator 19.0.0, SVG Export Plug-In . SVG Version: 6.00 Build 0)  -->
<svg version="1.1" id="Layer_1" xmlns="http://www.w3.org/2000/svg" xmlns:xlink="http://www.w3.org/1999/xlink" x="0px" y="0px"
	 viewBox="0 0 512 512" style="enable-background:new 0 0 512 512;" xml:space="preserve">
<path style="fill:#C7CFE2;" d="M255.999,194.206L255.999,194.206c-29.252,0-52.965-23.713-52.965-52.965V61.793h105.931v79.448
	C308.965,170.493,285.251,194.206,255.999,194.206z"/>
<rect x="203.029" y="52.965" style="fill:#AFB9D2;" width="105.93" height="26.483"/>
<path style="fill:#FF6464;" d="M313.379,61.793H198.62c-2.438,0-4.414-1.976-4.414-4.414v-6.514c0-4.12,2.338-7.883,6.033-9.708
	l55.76-27.548l55.76,27.549c3.694,1.825,6.033,5.588,6.033,9.708v6.514C317.793,59.817,315.816,61.793,313.379,61.793z"/>
<circle style="fill:#D2555A;" cx="255.999" cy="8.828" r="8.828"/>
<g>
	<path style="fill:#8F96AC;" d="M255.999,511.999c-4.875,0-8.828-3.953-8.828-8.828V150.069c0-4.875,3.953-8.828,8.828-8.828
		c4.875,0,8.828,3.953,8.828,8.828v353.103C264.828,508.046,260.875,511.999,255.999,511.999z"/>
	<path style="fill:#8F96AC;" d="M326.621,326.62H185.378c-4.875,0-8.828-3.953-8.828-8.828s3.953-8.828,8.828-8.828H326.62
		c4.875,0,8.828,3.953,8.828,8.828S331.496,326.62,326.621,326.62z"/>
	<path style="fill:#8F96AC;" d="M353.103,459.033H158.896c-4.875,0-8.828-3.953-8.828-8.828s3.953-8.828,8.828-8.828h194.206
		c4.875,0,8.828,3.953,8.828,8.828C361.931,455.081,357.978,459.033,353.103,459.033z"/>
</g>
<g>
	<path style="fill:#AFB9D2;" d="M370.747,512c-4.121,0-7.807-2.901-8.647-7.098l-70.621-353.103
		c-0.956-4.781,2.144-9.431,6.924-10.388c4.781-0.958,9.431,2.144,10.388,6.925l70.621,353.103
		c0.956,4.781-2.144,9.431-6.924,10.388C371.905,511.945,371.322,512,370.747,512z"/>
	<path style="fill:#AFB9D2;" d="M141.251,512c-0.575,0-1.156-0.056-1.741-0.173c-4.78-0.957-7.881-5.607-6.924-10.388
		l70.621-353.103c0.956-4.781,5.603-7.883,10.388-6.925c4.78,0.957,7.881,5.607,6.924,10.388l-70.621,353.103
		C149.057,509.099,145.371,512,141.251,512z"/>
</g>
<g>
	<path style="fill:#8F96AC;" d="M313.379,158.896H198.62c-2.438,0-4.414-1.976-4.414-4.414v-8.828c0-2.438,1.976-4.414,4.414-4.414
		h114.758c2.438,0,4.414,1.976,4.414,4.414v8.828C317.793,156.92,315.816,158.896,313.379,158.896z"/>
	<path style="fill:#8F96AC;" d="M392.827,511.999H119.173c-2.438,0-4.414-1.976-4.414-4.414v-8.828c0-2.438,1.976-4.414,4.414-4.414
		h273.655c2.438,0,4.414,1.976,4.414,4.414v8.828C397.241,510.023,395.265,511.999,392.827,511.999z"/>
</g>
<g>
</g>
<g>
</g>
<g>
</g>
<g>
</g>
<g>
</g>
<g>
</g>
<g>
</g>
<g>
</g>
<g>
</g>
<g>
</g>
<g>
</g>
<g>
</g>
<g>
</g>
<g>
</g>
<g>
</g>
</svg>
